{
	"asset":{
		"generator":"Khronos glTF Blender I/O v3.6.27",
		"version":"2.0"
	},
	"extensionsUsed":[
		"KHR_materials_transmission",
		"KHR_materials_ior"
	],
	"scene":0,
	"scenes":[
		{
			"name":"Scene",
			"nodes":[
				0,
				1,
				2,
				3,
				4,
				5,
				6,
				7,
				8
			]
		}
	],
	"nodes":[
		{
			"mesh":0,
			"name":"Sphere.001",
			"scale":[
				1.1967945098876953,
				1.1967945098876953,
				1.1967945098876953
			],
			"translation":[
				0.07335758209228516,
				6.469087600708008,
				0.006954193115234375
			]
		},
		{
			"name":"Plane.013",
			"scale":[
				0.644302487373352,
				1,
				0.644302487373352
			],
			"translation":[
				0.07335758209228516,
				6.557944297790527,
				0.006954193115234375
			]
		},
		{
			"name":"Plane.012",
			"rotation":[
				0,
				0.8699278235435486,
				0,
				0.493179053068161
			],
			"scale":[
				0.644302487373352,
				1,
				0.644302487373352
			],
			"translation":[
				0.01955127716064453,
				6.522337913513184,
				0.09075546264648438
			]
		},
		{
			"name":"Plane.011",
			"rotation":[
				0,
				0.9708870649337769,
				0,
				0.2395380735397339
			],
			"scale":[
				0.644302487373352,
				1,
				0.644302487373352
			],
			"translation":[
				0.19377613067626953,
				6.572787284851074,
				-0.20828628540039062
			]
		},
		{
			"name":"Plane.010",
			"rotation":[
				0,
				0.9708870053291321,
				0,
				0.2395380586385727
			],
			"scale":[
				0.1842179149389267,
				0.28591835498809814,
				0.1842179149389267
			],
			"translation":[
				-0.44992733001708984,
				6.46024227142334,
				0.005420684814453125
			]
		},
		{
			"name":"Plane.009",
			"rotation":[
				0,
				0.9708870053291321,
				0,
				0.2395380586385727
			],
			"scale":[
				0.1842179149389267,
				0.28591835498809814,
				0.1842179149389267
			],
			"translation":[
				0.657597541809082,
				6.551490306854248,
				0.15504837036132812
			]
		},
		{
			"name":"Plane.008",
			"rotation":[
				0,
				0.9708870053291321,
				0,
				0.2395380586385727
			],
			"scale":[
				0.1842179149389267,
				0.28591835498809814,
				0.1842179149389267
			],
			"translation":[
				0.10732841491699219,
				6.46024227142334,
				0.5096015930175781
			]
		},
		{
			"name":"Plane.007",
			"rotation":[
				0,
				0.9708870053291321,
				0,
				0.2395380586385727
			],
			"scale":[
				0.1842179149389267,
				0.28591835498809814,
				0.1842179149389267
			],
			"translation":[
				-0.09832572937011719,
				6.46024227142334,
				-0.46891021728515625
			]
		},
		{
			"name":"Plane.001",
			"rotation":[
				0,
				0.9708870053291321,
				0,
				0.2395380586385727
			],
			"scale":[
				0.1842179149389267,
				0.28591835498809814,
				0.1842179149389267
			],
			"translation":[
				0.45939165353775024,
				6.46024227142334,
				-0.49775028228759766
			]
		}
	],
	"materials":[
		{
			"doubleSided":true,
			"emissiveFactor":[
				1,
				1,
				1
			],
			"extensions":{
				"KHR_materials_transmission":{
					"transmissionFactor":1
				},
				"KHR_materials_ior":{
					"ior":1.4500000476837158
				}
			},
			"name":"Material.002",
			"pbrMetallicRoughness":{
				"baseColorFactor":[
					0.800000011920929,
					0.800000011920929,
					0.800000011920929,
					1
				],
				"metallicFactor":0,
				"roughnessFactor":0.5
			}
		}
	],
	"meshes":[
		{
			"name":"Sphere.002",
			"primitives":[
				{
					"attributes":{
						"POSITION":0,
						"NORMAL":1,
						"TEXCOORD_0":2
					},
					"indices":3,
					"material":0
				}
			]
		}
	],
	"accessors":[
		{
			"bufferView":0,
			"componentType":5126,
			"count":362,
			"max":[
				1.1165786981582642,
				1,
				1.1170450448989868
			],
			"min":[
				-1.1175116300582886,
				-0.2689220905303955,
				-1.1170454025268555
			],
			"type":"VEC3"
		},
		{
			"bufferView":1,
			"componentType":5126,
			"count":362,
			"type":"VEC3"
		},
		{
			"bufferView":2,
			"componentType":5126,
			"count":362,
			"type":"VEC2"
		},
		{
			"bufferView":3,
			"componentType":5123,
			"count":1824,
			"type":"SCALAR"
		}
	],
	"bufferViews":[
		{
			"buffer":0,
			"byteLength":4344,
			"byteOffset":0,
			"target":34962
		},
		{
			"buffer":0,
			"byteLength":4344,
			"byteOffset":4344,
			"target":34962
		},
		{
			"buffer":0,
			"byteLength":2896,
			"byteOffset":8688,
			"target":34962
		},
		{
			"buffer":0,
			"byteLength":3648,
			"byteOffset":11584,
			"target":34963
		}
	],
	"buffers":[
		{
			"byteLength":15232,
			"uri":"data:application/octet-stream;base64,"
		}
	]
}
