{
	"asset":{
		"generator":"Khronos glTF Blender I/O v3.6.27",
		"version":"2.0"
	},
	"extensionsUsed":[
		"KHR_materials_transmission",
		"KHR_materials_ior"
	],
	"scene":0,
	"scenes":[
		{
			"name":"Scene",
			"nodes":[
				0,
				1,
				2,
				3,
				4,
				5,
				6,
				7,
				8
			]
		}
	],
	"nodes":[
		{
			"mesh":0,
			"name":"Sphere.001",
			"scale":[
				1.1967945098876953,
				1.1967945098876953,
				1.1967945098876953
			],
			"translation":[
				0.07335758209228516,
				6.469087600708008,
				0.006954193115234375
			]
		},
		{
			"mesh":1,
			"name":"Plane.013",
			"scale":[
				0.644302487373352,
				1,
				0.644302487373352
			],
			"translation":[
				0.07335758209228516,
				6.557944297790527,
				0.006954193115234375
			]
		},
		{
			"mesh":2,
			"name":"Plane.012",
			"rotation":[
				0,
				0.8699278235435486,
				0,
				0.493179053068161
			],
			"scale":[
				0.644302487373352,
				1,
				0.644302487373352
			],
			"translation":[
				0.01955127716064453,
				6.522337913513184,
				0.09075546264648438
			]
		},
		{
			"mesh":3,
			"name":"Plane.011",
			"rotation":[
				0,
				0.9708870649337769,
				0,
				0.2395380735397339
			],
			"scale":[
				0.644302487373352,
				1,
				0.644302487373352
			],
			"translation":[
				0.19377613067626953,
				6.572787284851074,
				-0.20828628540039062
			]
		},
		{
			"mesh":4,
			"name":"Plane.010",
			"rotation":[
				0,
				0.9708870053291321,
				0,
				0.2395380586385727
			],
			"scale":[
				0.1842179149389267,
				0.28591835498809814,
				0.1842179149389267
			],
			"translation":[
				-0.44992733001708984,
				6.46024227142334,
				0.005420684814453125
			]
		},
		{
			"mesh":5,
			"name":"Plane.009",
			"rotation":[
				0,
				0.9708870053291321,
				0,
				0.2395380586385727
			],
			"scale":[
				0.1842179149389267,
				0.28591835498809814,
				0.1842179149389267
			],
			"translation":[
				0.657597541809082,
				6.551490306854248,
				0.15504837036132812
			]
		},
		{
			"mesh":6,
			"name":"Plane.008",
			"rotation":[
				0,
				0.9708870053291321,
				0,
				0.2395380586385727
			],
			"scale":[
				0.1842179149389267,
				0.28591835498809814,
				0.1842179149389267
			],
			"translation":[
				0.10732841491699219,
				6.46024227142334,
				0.5096015930175781
			]
		},
		{
			"mesh":7,
			"name":"Plane.007",
			"rotation":[
				0,
				0.9708870053291321,
				0,
				0.2395380586385727
			],
			"scale":[
				0.1842179149389267,
				0.28591835498809814,
				0.1842179149389267
			],
			"translation":[
				-0.09832572937011719,
				6.46024227142334,
				-0.46891021728515625
			]
		},
		{
			"mesh":8,
			"name":"Plane.001",
			"rotation":[
				0,
				0.9708870053291321,
				0,
				0.2395380586385727
			],
			"scale":[
				0.1842179149389267,
				0.28591835498809814,
				0.1842179149389267
			],
			"translation":[
				0.45939165353775024,
				6.46024227142334,
				-0.49775028228759766
			]
		}
	],
	"materials":[
		{
			"doubleSided":true,
			"extensions":{
				"KHR_materials_transmission":{
					"transmissionFactor":1
				},
				"KHR_materials_ior":{
					"ior":1.4500000476837158
				}
			},
			"name":"Material.002",
			"pbrMetallicRoughness":{
				"baseColorFactor":[
					0.800000011920929,
					0.800000011920929,
					0.800000011920929,
					1
				],
				"metallicFactor":0,
				"roughnessFactor":0.5
			}
		}
	],
	"meshes":[
		{
			"name":"Sphere.002",
			"primitives":[
				{
					"attributes":{
						"POSITION":0,
						"NORMAL":1,
						"TEXCOORD_0":2
					},
					"indices":3,
					"material":0
				}
			]
		},
		{
			"name":"Mesh",
			"primitives":[
				{
					"attributes":{
						"POSITION":4,
						"NORMAL":5,
						"TEXCOORD_0":6
					},
					"indices":7,
					"material":0
				}
			]
		},
		{
			"name":"Mesh",
			"primitives":[
				{
					"attributes":{
						"POSITION":8,
						"NORMAL":9,
						"TEXCOORD_0":10
					},
					"indices":11,
					"material":0
				}
			]
		},
		{
			"name":"Mesh",
			"primitives":[
				{
					"attributes":{
						"POSITION":12,
						"NORMAL":13,
						"TEXCOORD_0":14
					},
					"indices":15,
					"material":0
				}
			]
		},
		{
			"name":"Mesh",
			"primitives":[
				{
					"attributes":{
						"POSITION":16,
						"NORMAL":17,
						"TEXCOORD_0":18
					},
					"indices":19,
					"material":0
				}
			]
		},
		{
			"name":"Mesh",
			"primitives":[
				{
					"attributes":{
						"POSITION":20,
						"NORMAL":21,
						"TEXCOORD_0":22
					},
					"indices":19,
					"material":0
				}
			]
		},
		{
			"name":"Mesh",
			"primitives":[
				{
					"attributes":{
						"POSITION":23,
						"NORMAL":24,
						"TEXCOORD_0":25
					},
					"indices":26,
					"material":0
				}
			]
		},
		{
			"name":"Mesh",
			"primitives":[
				{
					"attributes":{
						"POSITION":27,
						"NORMAL":28,
						"TEXCOORD_0":29
					},
					"indices":30,
					"material":0
				}
			]
		},
		{
			"name":"Mesh",
			"primitives":[
				{
					"attributes":{
						"POSITION":31,
						"NORMAL":32,
						"TEXCOORD_0":33
					},
					"indices":34,
					"material":0
				}
			]
		}
	],
	"accessors":[
		{
			"bufferView":0,
			"componentType":5126,
			"count":5670,
			"max":[
				1.121493935585022,
				1.2359328269958496,
				1.2066131830215454
			],
			"min":[
				-1.3456450700759888,
				-0.38079237937927246,
				-1.1334034204483032
			],
			"type":"VEC3"
		},
		{
			"bufferView":1,
			"componentType":5126,
			"count":5670,
			"type":"VEC3"
		},
		{
			"bufferView":2,
			"componentType":5126,
			"count":5670,
			"type":"VEC2"
		},
		{
			"bufferView":3,
			"componentType":5123,
			"count":29952,
			"type":"SCALAR"
		},
		{
			"bufferView":4,
			"componentType":5126,
			"count":325,
			"max":[
				0.6178966760635376,
				0.06975004076957703,
				0.5255333185195923
			],
			"min":[
				-0.4197951555252075,
				-4.980699062347412,
				-0.5590285062789917
			],
			"type":"VEC3"
		},
		{
			"bufferView":5,
			"componentType":5126,
			"count":325,
			"type":"VEC3"
		},
		{
			"bufferView":6,
			"componentType":5126,
			"count":325,
			"type":"VEC2"
		},
		{
			"bufferView":7,
			"componentType":5123,
			"count":1536,
			"type":"SCALAR"
		},
		{
			"bufferView":8,
			"componentType":5126,
			"count":325,
			"max":[
				0.6195157170295715,
				0.07127708196640015,
				0.49128180742263794
			],
			"min":[
				-0.4736453592777252,
				-6.995301723480225,
				-0.5546613931655884
			],
			"type":"VEC3"
		},
		{
			"bufferView":9,
			"componentType":5126,
			"count":325,
			"type":"VEC3"
		},
		{
			"bufferView":10,
			"componentType":5126,
			"count":325,
			"type":"VEC2"
		},
		{
			"bufferView":11,
			"componentType":5123,
			"count":1536,
			"type":"SCALAR"
		},
		{
			"bufferView":12,
			"componentType":5126,
			"count":325,
			"max":[
				0.5985925197601318,
				0.06730950623750687,
				0.5252559185028076
			],
			"min":[
				-0.42277681827545166,
				-5.561233997344971,
				-0.5451415777206421
			],
			"type":"VEC3"
		},
		{
			"bufferView":13,
			"componentType":5126,
			"count":325,
			"type":"VEC3"
		},
		{
			"bufferView":14,
			"componentType":5126,
			"count":325,
			"type":"VEC2"
		},
		{
			"bufferView":15,
			"componentType":5123,
			"count":1536,
			"type":"SCALAR"
		},
		{
			"bufferView":16,
			"componentType":5126,
			"count":325,
			"max":[
				0.44614580273628235,
				-0.16303309798240662,
				0.2918385863304138
			],
			"min":[
				-0.32744407653808594,
				-2.9487195014953613,
				-0.3785376250743866
			],
			"type":"VEC3"
		},
		{
			"bufferView":17,
			"componentType":5126,
			"count":325,
			"type":"VEC3"
		},
		{
			"bufferView":18,
			"componentType":5126,
			"count":325,
			"type":"VEC2"
		},
		{
			"bufferView":19,
			"componentType":5123,
			"count":1536,
			"type":"SCALAR"
		},
		{
			"bufferView":20,
			"componentType":5126,
			"count":325,
			"max":[
				0.6430760025978088,
				0.0782257467508316,
				0.46941688656806946
			],
			"min":[
				-0.5158847570419312,
				-4.540309429168701,
				-0.5856728553771973
			],
			"type":"VEC3"
		},
		{
			"bufferView":21,
			"componentType":5126,
			"count":325,
			"type":"VEC3"
		},
		{
			"bufferView":22,
			"componentType":5126,
			"count":325,
			"type":"VEC2"
		},
		{
			"bufferView":23,
			"componentType":5126,
			"count":325,
			"max":[
				0.6098999381065369,
				0.06863929331302643,
				0.5051209330558777
			],
			"min":[
				-0.3880736827850342,
				-6.292680263519287,
				-0.5589334964752197
			],
			"type":"VEC3"
		},
		{
			"bufferView":24,
			"componentType":5126,
			"count":325,
			"type":"VEC3"
		},
		{
			"bufferView":25,
			"componentType":5126,
			"count":325,
			"type":"VEC2"
		},
		{
			"bufferView":26,
			"componentType":5123,
			"count":1536,
			"type":"SCALAR"
		},
		{
			"bufferView":27,
			"componentType":5126,
			"count":325,
			"max":[
				0.39595672488212585,
				0.07259295135736465,
				0.1886829286813736
			],
			"min":[
				-0.4295431077480316,
				-1.71525239944458,
				-0.4869929552078247
			],
			"type":"VEC3"
		},
		{
			"bufferView":28,
			"componentType":5126,
			"count":325,
			"type":"VEC3"
		},
		{
			"bufferView":29,
			"componentType":5126,
			"count":325,
			"type":"VEC2"
		},
		{
			"bufferView":30,
			"componentType":5123,
			"count":1536,
			"type":"SCALAR"
		},
		{
			"bufferView":31,
			"componentType":5126,
			"count":325,
			"max":[
				0.6048697233200073,
				0.07227625697851181,
				0.49391332268714905
			],
			"min":[
				-0.35623684525489807,
				-2.9660704135894775,
				-0.5442855358123779
			],
			"type":"VEC3"
		},
		{
			"bufferView":32,
			"componentType":5126,
			"count":325,
			"type":"VEC3"
		},
		{
			"bufferView":33,
			"componentType":5126,
			"count":325,
			"type":"VEC2"
		},
		{
			"bufferView":34,
			"componentType":5123,
			"count":1536,
			"type":"SCALAR"
		}
	],
	"bufferViews":[
		{
			"buffer":0,
			"byteLength":68040,
			"byteOffset":0,
			"target":34962
		},
		{
			"buffer":0,
			"byteLength":68040,
			"byteOffset":68040,
			"target":34962
		},
		{
			"buffer":0,
			"byteLength":45360,
			"byteOffset":136080,
			"target":34962
		},
		{
			"buffer":0,
			"byteLength":59904,
			"byteOffset":181440,
			"target":34963
		},
		{
			"buffer":0,
			"byteLength":3900,
			"byteOffset":241344,
			"target":34962
		},
		{
			"buffer":0,
			"byteLength":3900,
			"byteOffset":245244,
			"target":34962
		},
		{
			"buffer":0,
			"byteLength":2600,
			"byteOffset":249144,
			"target":34962
		},
		{
			"buffer":0,
			"byteLength":3072,
			"byteOffset":251744,
			"target":34963
		},
		{
			"buffer":0,
			"byteLength":3900,
			"byteOffset":254816,
			"target":34962
		},
		{
			"buffer":0,
			"byteLength":3900,
			"byteOffset":258716,
			"target":34962
		},
		{
			"buffer":0,
			"byteLength":2600,
			"byteOffset":262616,
			"target":34962
		},
		{
			"buffer":0,
			"byteLength":3072,
			"byteOffset":265216,
			"target":34963
		},
		{
			"buffer":0,
			"byteLength":3900,
			"byteOffset":268288,
			"target":34962
		},
		{
			"buffer":0,
			"byteLength":3900,
			"byteOffset":272188,
			"target":34962
		},
		{
			"buffer":0,
			"byteLength":2600,
			"byteOffset":276088,
			"target":34962
		},
		{
			"buffer":0,
			"byteLength":3072,
			"byteOffset":278688,
			"target":34963
		},
		{
			"buffer":0,
			"byteLength":3900,
			"byteOffset":281760,
			"target":34962
		},
		{
			"buffer":0,
			"byteLength":3900,
			"byteOffset":285660,
			"target":34962
		},
		{
			"buffer":0,
			"byteLength":2600,
			"byteOffset":289560,
			"target":34962
		},
		{
			"buffer":0,
			"byteLength":3072,
			"byteOffset":292160,
			"target":34963
		},
		{
			"buffer":0,
			"byteLength":3900,
			"byteOffset":295232,
			"target":34962
		},
		{
			"buffer":0,
			"byteLength":3900,
			"byteOffset":299132,
			"target":34962
		},
		{
			"buffer":0,
			"byteLength":2600,
			"byteOffset":303032,
			"target":34962
		},
		{
			"buffer":0,
			"byteLength":3900,
			"byteOffset":305632,
			"target":34962
		},
		{
			"buffer":0,
			"byteLength":3900,
			"byteOffset":309532,
			"target":34962
		},
		{
			"buffer":0,
			"byteLength":2600,
			"byteOffset":313432,
			"target":34962
		},
		{
			"buffer":0,
			"byteLength":3072,
			"byteOffset":316032,
			"target":34963
		},
		{
			"buffer":0,
			"byteLength":3900,
			"byteOffset":319104,
			"target":34962
		},
		{
			"buffer":0,
			"byteLength":3900,
			"byteOffset":323004,
			"target":34962
		},
		{
			"buffer":0,
			"byteLength":2600,
			"byteOffset":326904,
			"target":34962
		},
		{
			"buffer":0,
			"byteLength":3072,
			"byteOffset":329504,
			"target":34963
		},
		{
			"buffer":0,
			"byteLength":3900,
			"byteOffset":332576,
			"target":34962
		},
		{
			"buffer":0,
			"byteLength":3900,
			"byteOffset":336476,
			"target":34962
		},
		{
			"buffer":0,
			"byteLength":2600,
			"byteOffset":340376,
			"target":34962
		},
		{
			"buffer":0,
			"byteLength":3072,
			"byteOffset":342976,
			"target":34963
		}
	],
	"buffers":[
		{
			"byteLength":346048,
			"uri":"data:application/octet-stream;base64,"
		}
	]
}
